<svg width="30" height="30" viewBox="0 0 30 30" fill="none" xmlns="http://www.w3.org/2000/svg">
<path d="M13.125 5.625C13.125 3.34683 11.2782 1.5 9 1.5C6.72183 1.5 4.875 3.34683 4.875 5.625C4.875 7.90317 6.72183 9.75 9 9.75C11.2782 9.75 13.125 7.90317 13.125 5.625ZM6.375 5.625C6.375 4.17525 7.55025 3 9 3C10.4497 3 11.625 4.17525 11.625 5.625C11.625 7.07475 10.4497 8.25 9 8.25C7.55025 8.25 6.375 7.07475 6.375 5.625Z" fill="#1E94AC"/>
<path d="M3.75 11.25H10.0238C9.77788 11.7152 9.5953 12.219 9.48751 12.75H3.75C3.33579 12.75 3 13.0858 3 13.5V14.25C3 16.1386 4.64777 18.1707 7.64454 18.6463C7.16094 18.9751 6.75819 19.4139 6.47229 19.9268C3.30844 19.0679 1.5 16.6311 1.5 14.25V13.5C1.5 12.2574 2.50735 11.25 3.75 11.25Z" fill="#1E94AC"/>
<path d="M11.8179 11.25C12.5745 10.3339 13.719 9.75 15 9.75C16.281 9.75 17.4255 10.3339 18.1821 11.25C18.5408 11.6843 18.8122 12.1932 18.9697 12.75C19.0708 13.1076 19.125 13.485 19.125 13.875C19.125 15.48 18.2084 16.8709 16.8699 17.5528C16.3379 17.8237 15.7393 17.9827 15.1053 17.9986C15.0704 17.9995 15.0353 18 15 18C14.9648 18 14.9297 17.9995 14.8947 17.9986C14.2606 17.9827 13.6621 17.8239 13.1301 17.5528C11.7917 16.8709 10.875 15.48 10.875 13.875C10.875 13.485 10.9291 13.1076 11.0303 12.75C11.1877 12.1932 11.4592 11.6843 11.8179 11.25ZM12.6276 12.75C12.4656 13.091 12.375 13.4724 12.375 13.875C12.375 14.9461 13.0165 15.8673 13.9363 16.2756C14.2614 16.4199 14.6214 16.5 15 16.5C15.3786 16.5 15.7386 16.4199 16.0636 16.2756C16.9834 15.8673 17.625 14.9461 17.625 13.875C17.625 13.4724 17.5344 13.091 17.3724 12.75C17.0043 11.9753 16.2679 11.4094 15.3895 11.2787C15.2625 11.2598 15.1325 11.25 15 11.25C14.8676 11.25 14.7375 11.2598 14.6104 11.2787C13.732 11.4094 12.9957 11.9753 12.6276 12.75Z" fill="#1E94AC"/>
<path d="M23.5275 19.9268C23.2416 19.4139 22.8388 18.9751 22.3552 18.6463C25.3521 18.1707 26.9998 16.1386 26.9998 14.25V13.5C26.9998 13.0858 26.664 12.75 26.2498 12.75H20.5123C20.4045 12.219 20.2219 11.7152 19.9761 11.25H26.2498C27.4924 11.25 28.4998 12.2574 28.4998 13.5V14.25C28.4998 16.6311 26.6914 19.0679 23.5275 19.9268Z" fill="#1E94AC"/>
<path d="M21.7308 20.0559C21.3351 19.7097 20.817 19.5 20.25 19.5H9.75C9.10196 19.5 8.5179 19.7739 8.10734 20.2124C7.73064 20.6147 7.5 21.1554 7.5 21.75V22.5C7.5 25.4571 10.2893 28.5 15 28.5C19.7108 28.5 22.5 25.4571 22.5 22.5V21.75C22.5 21.0744 22.2022 20.4684 21.7308 20.0559ZM9 21.75C9 21.3359 9.33579 21 9.75 21H20.25C20.6642 21 21 21.3359 21 21.75V22.5C21 24.6564 18.8517 27 15 27C11.1482 27 9 24.6564 9 22.5V21.75Z" fill="#1E94AC"/>
<path d="M21 1.5C23.2782 1.5 25.125 3.34683 25.125 5.625C25.125 7.90317 23.2782 9.75 21 9.75C18.7218 9.75 16.875 7.90317 16.875 5.625C16.875 3.34683 18.7218 1.5 21 1.5ZM21 3C19.5503 3 18.375 4.17525 18.375 5.625C18.375 7.07475 19.5503 8.25 21 8.25C22.4497 8.25 23.625 7.07475 23.625 5.625C23.625 4.17525 22.4497 3 21 3Z" fill="#1E94AC"/>
</svg>
