<svg width="30" height="30" viewBox="0 0 30 30" fill="none" xmlns="http://www.w3.org/2000/svg">
<path d="M4.6875 6.5625C5.20527 6.5625 5.625 6.14277 5.625 5.625C5.625 5.10723 5.20527 4.6875 4.6875 4.6875C4.16973 4.6875 3.75 5.10723 3.75 5.625C3.75 6.14277 4.16973 6.5625 4.6875 6.5625Z" stroke="#1E94AC" stroke-width="2" stroke-miterlimit="10" stroke-linecap="round" stroke-linejoin="round"/>
<path d="M4.6875 15.9375C5.20527 15.9375 5.625 15.5178 5.625 15C5.625 14.4822 5.20527 14.0625 4.6875 14.0625C4.16973 14.0625 3.75 14.4822 3.75 15C3.75 15.5178 4.16973 15.9375 4.6875 15.9375Z" stroke="#1E94AC" stroke-width="2" stroke-miterlimit="10" stroke-linecap="round" stroke-linejoin="round"/>
<path d="M4.6875 25.3125C5.20527 25.3125 5.625 24.8928 5.625 24.375C5.625 23.8572 5.20527 23.4375 4.6875 23.4375C4.16973 23.4375 3.75 23.8572 3.75 24.375C3.75 24.8928 4.16973 25.3125 4.6875 25.3125Z" stroke="#1E94AC" stroke-width="2" stroke-miterlimit="10" stroke-linecap="round" stroke-linejoin="round"/>
<path d="M9.375 5.625H26.25" stroke="#1E94AC" stroke-width="2" stroke-miterlimit="10" stroke-linecap="round" stroke-linejoin="round"/>
<path d="M9.375 15H26.25" stroke="#1E94AC" stroke-width="2" stroke-miterlimit="10" stroke-linecap="round" stroke-linejoin="round"/>
<path d="M9.375 24.375H26.25" stroke="#1E94AC" stroke-width="2" stroke-miterlimit="10" stroke-linecap="round" stroke-linejoin="round"/>
</svg>
