<svg width="70" height="70" viewBox="0 0 70 70" fill="none" xmlns="http://www.w3.org/2000/svg">
<path d="M21 3.5C26.3157 3.5 30.625 7.80927 30.625 13.125C30.625 18.4407 26.3157 22.75 21 22.75C15.6843 22.75 11.375 18.4407 11.375 13.125C11.375 7.80927 15.6843 3.5 21 3.5ZM21 7C17.6173 7 14.875 9.74225 14.875 13.125C14.875 16.5077 17.6173 19.25 21 19.25C24.3827 19.25 27.125 16.5077 27.125 13.125C27.125 9.74225 24.3827 7 21 7ZM23.3888 26.25H8.75C5.8505 26.25 3.5 28.6005 3.5 31.5V33.25C3.5 38.8059 7.7197 44.4916 15.102 46.4958C15.7691 45.2991 16.7089 44.2753 17.8373 43.5081C10.8448 42.3983 7 37.6568 7 33.25V31.5C7 30.5335 7.78351 29.75 8.75 29.75H22.1375C22.389 28.511 22.8151 27.3355 23.3888 26.25ZM35 22.75C32.0111 22.75 29.3404 24.1124 27.575 26.25C26.7382 27.2633 26.1047 28.4508 25.7373 29.75C25.5013 30.5845 25.375 31.465 25.375 32.375C25.375 36.12 27.514 39.3655 30.637 40.9566C31.5639 41.4288 32.5775 41.7553 33.6475 41.9058C34.2932 40.6598 35.071 39.4933 35.9625 38.4248C35.6489 38.4745 35.3276 38.5 35 38.5C34.1165 38.5 33.2767 38.3131 32.518 37.9764C30.3719 37.0237 28.875 34.8742 28.875 32.375C28.875 31.4356 29.0865 30.5456 29.4644 29.75C30.3232 27.9423 32.0414 26.6219 34.091 26.317C34.3876 26.2729 34.6911 26.25 35 26.25C35.309 26.25 35.6125 26.2729 35.909 26.317C37.9585 26.6219 39.6767 27.9423 40.5356 29.75C40.9136 30.5456 41.125 31.4356 41.125 32.375C41.125 33.028 41.0228 33.6572 40.8335 34.2474C42.02 33.533 43.2894 32.9429 44.6243 32.4952C44.6246 32.4552 44.625 32.4151 44.625 32.375C44.625 31.465 44.4986 30.5845 44.2627 29.75C43.8952 28.4508 43.2617 27.2633 42.4249 26.25C40.6595 24.1124 37.989 22.75 35 22.75ZM65.3692 38.2259C64.5474 37.2673 63.6328 36.3905 62.6395 35.6093C62.8785 34.8273 63 34.0333 63 33.25V31.5C63 30.5335 62.2164 29.75 61.25 29.75H47.8625C47.6109 28.511 47.1849 27.3355 46.6113 26.25H61.25C64.1494 26.25 66.5 28.6005 66.5 31.5V33.25C66.5 34.932 66.1133 36.6257 65.3692 38.2259ZM32.2246 45.5H22.75C21.2379 45.5 19.8751 46.1391 18.9171 47.1622C18.0382 48.1008 17.5 49.3626 17.5 50.75V52.5C17.5 59.3999 24.0083 66.5 35 66.5C36.4745 66.5 37.8686 66.3722 39.1772 66.1343C37.9592 65.2165 36.854 64.1578 35.8852 62.9821C35.5947 62.994 35.2996 63 35 63C26.0126 63 21 57.5316 21 52.5V50.75C21 49.7836 21.7835 49 22.75 49H31.5785C31.6868 47.7981 31.9056 46.6281 32.2246 45.5ZM58.625 13.125C58.625 7.80927 54.3158 3.5 49 3.5C43.6842 3.5 39.375 7.80927 39.375 13.125C39.375 18.4407 43.6842 22.75 49 22.75C54.3158 22.75 58.625 18.4407 58.625 13.125ZM42.875 13.125C42.875 9.74225 45.6172 7 49 7C52.3828 7 55.125 9.74225 55.125 13.125C55.125 16.5077 52.3828 19.25 49 19.25C45.6172 19.25 42.875 16.5077 42.875 13.125ZM50.75 66.5C59.4486 66.5 66.5 59.4486 66.5 50.75C66.5 42.0514 59.4486 35 50.75 35C42.0514 35 35 42.0514 35 50.75C35 59.4486 42.0514 66.5 50.75 66.5ZM50.75 42C51.7164 42 52.5 42.7836 52.5 43.75V49H57.75C58.7164 49 59.5 49.7836 59.5 50.75C59.5 51.7164 58.7164 52.5 57.75 52.5H52.5V57.75C52.5 58.7164 51.7164 59.5 50.75 59.5C49.7836 59.5 49 58.7164 49 57.75V52.5H43.75C42.7836 52.5 42 51.7164 42 50.75C42 49.7836 42.7836 49 43.75 49H49V43.75C49 42.7836 49.7836 42 50.75 42Z" fill="white"/>
</svg>
