<svg width="21" height="21" viewBox="0 0 21 21" fill="none" xmlns="http://www.w3.org/2000/svg">
<g clip-path="url(#clip0_37_503)">
<path d="M16 8.01C16.0031 6.20186 15.3936 4.446 14.2709 3.02868C13.1481 1.61137 11.5783 0.616191 9.81749 0.20541C8.05663 -0.205371 6.20855 -0.00752813 4.57455 0.766683C2.94055 1.54089 1.61702 2.84581 0.819732 4.46867C0.0224456 6.09154 -0.201564 7.93663 0.184225 9.70313C0.570014 11.4696 1.54285 13.0533 2.94411 14.1961C4.34538 15.3388 6.09243 15.9731 7.90042 15.9956C9.70842 16.0181 11.4707 15.4275 12.9 14.32L19.3 20.72L20.71 19.31L14.31 12.91C15.4015 11.5095 15.9961 9.78562 16 8.01ZM8 14.01C6.81331 14.01 5.65327 13.6581 4.66658 12.9988C3.67988 12.3395 2.91085 11.4025 2.45672 10.3061C2.00259 9.20974 1.88377 8.00334 2.11529 6.83946C2.3468 5.67557 2.91824 4.60647 3.75736 3.76736C4.59647 2.92824 5.66557 2.3568 6.82945 2.12529C7.99334 1.89377 9.19974 2.01259 10.2961 2.46672C11.3925 2.92085 12.3295 3.68988 12.9888 4.67658C13.6481 5.66327 14 6.82331 14 8.01C14 9.6013 13.3679 11.1274 12.2426 12.2526C11.1174 13.3779 9.5913 14.01 8 14.01Z" fill="#A0D5DF"/>
</g>
<defs>
<clipPath id="clip0_37_503">
<rect width="20.71" height="20.72" fill="white"/>
</clipPath>
</defs>
</svg>
