<svg width="30" height="30" viewBox="0 0 30 30" fill="none" xmlns="http://www.w3.org/2000/svg">
<path d="M17.1253 25H12.7503C11.8753 25 11.1253 26 11.6253 26.875C12.3753 28 13.6253 28.75 15.0003 28.75C16.3753 28.75 17.6253 28 18.2503 26.875C18.7503 26 18.1253 25 17.1253 25Z" fill="black"/>
<path d="M27.2502 20.875L26.7502 20.25C24.7502 17.625 23.7502 14.5 23.7502 11.25V10.375C23.7502 5.87502 20.5002 1.87501 16.0002 1.37501C10.7502 0.750015 6.25021 4.87501 6.25021 10V11.25C6.25021 14.5 5.25021 17.625 3.25021 20.25L2.75021 20.875C2.50021 21.125 2.37521 21.625 2.50021 21.875C2.87521 23 3.87521 23.75 5.00021 23.75H25.0002C26.1252 23.75 27.1252 23 27.3752 21.875C27.5002 21.5 27.3752 21.125 27.2502 20.875Z" fill="black"/>
</svg>
