<svg width="80" height="48" viewBox="0 0 80 48" fill="none" xmlns="http://www.w3.org/2000/svg">
<g clip-path="url(#clip0_37_561)">
<path d="M40.5608 38.9019C40.5608 45.2388 36.1979 48 32.0819 48C27.4729 48 23.9214 44.6012 23.9214 39.1876C23.9214 33.4523 27.6507 30.0895 32.3652 30.0895C37.2535 30.0869 40.5608 33.6619 40.5608 38.9019ZM27.0509 39.0788C27.0509 42.8314 29.1965 45.6634 32.2225 45.6634C35.1776 45.6634 37.3975 42.8668 37.3975 39.008C37.3975 36.1046 35.9551 32.4228 32.2962 32.4228C28.6372 32.4228 27.0509 35.8216 27.0509 39.0788Z" fill="#1E94AC"/>
<path d="M44.0468 44.4243C44.9617 45.0251 46.5799 45.6634 48.1284 45.6634C50.3801 45.6634 51.435 44.5284 51.435 43.1145C51.435 41.6277 50.5559 40.8132 48.269 39.964C45.2078 38.8665 43.7655 37.1668 43.7655 35.1139C43.7655 32.352 45.9821 30.0869 49.641 30.0869C51.366 30.0869 52.878 30.5822 53.8274 31.1483L53.0538 33.4142C52.0066 32.7652 50.8006 32.422 49.5707 32.4228C47.7409 32.4228 46.7179 33.485 46.7179 34.7594C46.7179 36.1761 47.7376 36.813 49.9542 37.6628C52.9099 38.7977 54.4226 40.2825 54.4226 42.8314C54.4226 45.8403 52.1005 47.9646 48.0534 47.9646C46.1884 47.9646 44.4648 47.5046 43.2686 46.7963L44.0468 44.4243Z" fill="#1E94AC"/>
<path d="M62.127 25.5552V30.4761H66.5602V32.8481H62.127V42.0877C62.127 44.212 62.7241 45.4157 64.4491 45.4157C65.0528 45.4243 65.6551 45.3529 66.2404 45.2034L66.3817 47.54C65.7846 47.7877 64.8332 47.9646 63.637 47.9646C62.1946 47.9646 61.0336 47.5046 60.2952 46.6548C59.4154 45.7341 59.101 44.212 59.101 42.1938V32.8474H56.4624V30.4761H59.101V26.367L62.127 25.5552Z" fill="#1E94AC"/>
<path d="M69.6207 44.4243C70.5356 45.0251 72.1538 45.6634 73.7016 45.6634C75.9534 45.6634 77.0089 44.5284 77.0089 43.1145C77.0089 41.6277 76.1292 40.8132 73.8423 39.964C70.7817 38.8665 69.3394 37.1668 69.3394 35.1139C69.3394 32.352 71.5553 30.0869 75.2143 30.0869C76.9393 30.0869 78.4513 30.5822 79.4013 31.1483L78.6271 33.4142C77.58 32.7649 76.3739 32.4216 75.1439 32.4228C73.3148 32.4228 72.2911 33.485 72.2911 34.7594C72.2911 36.1761 73.3115 36.813 75.5281 37.6628C78.4831 38.7977 79.9958 40.2825 79.9958 42.8314C79.9958 45.8403 77.6737 47.9646 73.6266 47.9646C71.7623 47.9646 70.038 47.5046 68.8418 46.7963L69.6207 44.4243Z" fill="#1E94AC"/>
<path d="M28.2133 2.30188C27.1656 1.6019 26.027 1.05061 24.8297 0.663586C24.701 0.620859 23.6879 0.288392 23.0569 0.204274V0.200937L22.9733 0.190255C22.4001 0.117486 21.7506 0.0353707 19.8053 0.0186806C16.6088 -0.00935868 15.2859 -0.020707 14.5475 0.0967911C12.2844 0.457297 10.0154 2.23846 8.32093 4.98298C6.70078 7.60733 5.80578 10.8118 5.86615 13.7753C5.9325 17.0466 7.13335 20.3365 9.24977 23.049C11.2773 25.6486 13.9032 27.3884 16.4542 27.825C17.2335 27.9474 18.0214 28.0056 18.8101 27.9993C19.8324 27.9992 20.853 27.9163 21.862 27.7516C22.1062 27.7109 24.2989 27.335 26.0697 26.5179C28.1363 25.5652 30.055 23.8354 31.4742 21.6444C33.03 19.2457 33.8566 16.5118 33.8626 13.7373C33.8798 9.14281 31.6613 4.64918 28.2133 2.30188ZM24.4084 22.8767C23.3137 23.3815 21.7327 23.7133 21.2152 23.7987C19.388 24.0998 17.7798 23.989 17.1177 23.8761C13.8382 23.316 9.94706 18.7463 9.84489 13.6939C9.80043 11.4848 10.4772 9.08006 11.7026 7.09661C12.7541 5.39289 14.083 4.22592 15.1704 4.05367C15.394 4.01762 16.0137 4.00561 16.9233 4.00561C17.6889 4.00561 18.6602 4.01429 19.7761 4.02363C21.4865 4.03899 21.9907 4.10241 22.4784 4.1645H22.4963C22.7849 4.22525 24.5139 4.61713 25.9841 5.6172C28.3281 7.21344 29.8985 10.472 29.8859 13.7259C29.8706 18.0373 27.0542 21.6577 24.4084 22.8767Z" fill="#1E94AC"/>
<path d="M0 0.404578V47.9973H16.2261V0.330475L0 0.404578ZM15.3311 17.6414H0.895V16.5292H15.3311V17.6414ZM15.3311 15.7508H0.895V14.6392H15.3311V15.7508ZM15.3311 12.5256V13.6378H0.895V12.5262H15.3311V12.5256ZM15.3311 11.6363H0.895V10.5241H15.3311V11.6363ZM15.3311 9.63352H0.895V8.52263H15.3311V9.63352ZM15.3311 6.51982V7.63205H0.895V6.52116H15.3311V6.51982ZM15.3311 4.29604V5.40826H0.895V4.29671L15.3311 4.29604Z" fill="#1E94AC"/>
<path d="M0.89502 5.40892H15.3311V4.29669H0.89502V5.40892Z" fill="white"/>
<path d="M15.3311 6.52048H0.89502V7.6327H15.3311V6.52048Z" fill="white"/>
<path d="M0.89502 9.63487L15.3311 9.6342V8.52264H0.89502V9.63487Z" fill="white"/>
<path d="M15.3311 10.5241H0.89502V11.6363H15.3311V10.5241Z" fill="white"/>
<path d="M15.3311 12.5256H0.89502V13.6378H15.3311V12.5256Z" fill="white"/>
<path d="M15.3311 14.6385H0.89502V15.7508H15.3311V14.6385Z" fill="white"/>
<path d="M15.3311 16.5292H0.89502V17.6414H15.3311V16.5292Z" fill="white"/>
<path d="M5.54257 16.389H4.91162V18.0627H5.54257V16.389Z" fill="#1E94AC"/>
<path d="M14.1276 16.5292H13.6685V18.0634H14.1276V16.5292Z" fill="#1E94AC"/>
<path d="M9.3665 14.4843H8.85498V15.9851H9.3665V14.4843Z" fill="#1E94AC"/>
<path d="M12.0813 10.2904H11.5698V11.7912H12.0813V10.2904Z" fill="#1E94AC"/>
<path d="M3.20049 8.28964H2.68896V9.79041H3.20049V8.28964Z" fill="#1E94AC"/>
<path d="M10.8343 6.32623H10.3228V7.827H10.8343V6.32623Z" fill="#1E94AC"/>
<path d="M12.9134 6.28882H12.4019V7.78959H12.9134V6.28882Z" fill="#1E94AC"/>
<path d="M5.22734 4.09509H4.71582V5.59586H5.22734V4.09509Z" fill="#1E94AC"/>
<path d="M4.91168 12.3033H4.39551V13.8601H4.91168V12.3033Z" fill="#1E94AC"/>
</g>
<defs>
<clipPath id="clip0_37_561">
<rect width="80" height="48" fill="white"/>
</clipPath>
</defs>
</svg>
