<svg width="177" height="177" viewBox="0 0 177 177" fill="none" xmlns="http://www.w3.org/2000/svg">
<path d="M89.6554 118.65C89.6554 131.614 80.6742 137.262 72.2012 137.262C62.7134 137.262 55.4026 130.309 55.4026 119.235C55.4026 107.502 63.0794 100.622 72.7844 100.622C82.8471 100.617 89.6554 107.93 89.6554 118.65ZM61.8448 119.012C61.8448 126.689 66.2616 132.482 72.4907 132.482C78.5737 132.482 83.1435 126.761 83.1435 118.867C83.1435 112.928 80.1744 105.396 72.6423 105.396C65.1103 105.396 61.8448 112.349 61.8448 119.012Z" fill="#1E94AC"/>
<path d="M96.831 129.947C98.7144 131.177 102.045 132.482 105.233 132.482C109.868 132.482 112.04 130.161 112.04 127.268C112.04 124.226 110.23 122.56 105.523 120.823C99.2211 118.578 96.2519 115.101 96.2519 110.901C96.2519 105.251 100.815 100.617 108.347 100.617C111.898 100.617 115.01 101.63 116.965 102.788L115.372 107.424C113.216 106.096 110.734 105.394 108.202 105.396C104.435 105.396 102.329 107.568 102.329 110.176C102.329 113.074 104.429 114.377 108.992 116.115C115.076 118.437 118.19 121.474 118.19 126.689C118.19 132.844 113.41 137.19 105.079 137.19C101.24 137.19 97.6914 136.249 95.229 134.8L96.831 129.947Z" fill="#1E94AC"/>
<path d="M134.05 91.3462V101.413H143.176V106.266H134.05V125.167C134.05 129.513 135.279 131.976 138.83 131.976C140.073 131.993 141.313 131.847 142.518 131.541L142.809 136.321C141.579 136.828 139.621 137.19 137.159 137.19C134.189 137.19 131.799 136.249 130.279 134.51C128.468 132.627 127.821 129.513 127.821 125.385V106.264H122.389V101.413H127.821V93.0069L134.05 91.3462Z" fill="#1E94AC"/>
<path d="M149.476 129.947C151.36 131.177 154.691 132.482 157.877 132.482C162.512 132.482 164.685 130.161 164.685 127.268C164.685 124.226 162.874 122.56 158.166 120.823C151.866 118.578 148.897 115.101 148.897 110.901C148.897 105.251 153.459 100.617 160.991 100.617C164.542 100.617 167.654 101.63 169.61 102.788L168.016 107.424C165.861 106.095 163.378 105.393 160.846 105.396C157.081 105.396 154.973 107.568 154.973 110.176C154.973 113.074 157.074 114.377 161.637 116.115C167.72 118.437 170.834 121.474 170.834 126.689C170.834 132.844 166.054 137.19 157.723 137.19C153.885 137.19 150.335 136.249 147.873 134.8L149.476 129.947Z" fill="#1E94AC"/>
<path d="M64.2376 43.7761C62.081 42.3441 59.7371 41.2163 57.2724 40.4246C57.0074 40.3372 54.9219 39.657 53.6231 39.4849V39.4781L53.451 39.4563C52.271 39.3074 50.934 39.1394 46.9296 39.1053C40.3495 39.0479 37.6262 39.0247 36.1061 39.2651C34.1722 39.5723 32.2356 40.3809 30.3837 41.6223C30.6486 41.7015 30.919 41.7657 31.1908 41.8204C31.7194 41.9269 32.2534 41.9965 32.7846 42.0839C33.9469 42.2751 35.1405 42.6029 36.113 43.294C37.5388 44.3046 38.3418 45.7154 38.6587 47.2833C39.2692 47.2683 40.0586 47.2615 40.9968 47.2615C42.5729 47.2615 44.5723 47.2792 46.8695 47.2983C50.3904 47.3298 51.4284 47.4595 52.4322 47.5865H52.4691C53.0632 47.7108 56.6223 48.5125 59.6488 50.5584C64.4739 53.8238 67.7066 60.49 67.6807 67.1466C67.652 75.9625 61.8544 83.3689 56.4133 85.8573C54.1598 86.8898 50.9053 87.5686 49.84 87.7434C46.0788 88.3593 42.7682 88.1326 41.4052 87.9018C40.2718 87.6942 39.1767 87.3152 38.1575 86.7778C37.9083 88.0452 37.5241 89.2824 37.0116 90.468C36.4261 91.8243 35.6203 93.0744 34.627 94.1678C36.3267 95.0396 38.1467 95.6536 40.0272 95.9897C41.6314 96.24 43.2533 96.3592 44.8769 96.3462C46.9812 96.346 49.0821 96.1766 51.1593 95.8395C51.6619 95.7562 56.1757 94.9873 59.8208 93.3156C64.0751 91.3667 68.0248 87.8281 70.9462 83.3457C74.1488 78.4386 75.8505 72.8459 75.8628 67.1699C75.9024 57.7708 71.3354 48.578 64.2376 43.7761Z" fill="#1E94AC"/>
<path d="M6.15955 39.8946V137.257H39.5615V39.743L6.15955 39.8946ZM37.7191 75.1567H8.00193V72.8814H37.7191V75.1567ZM37.7191 71.2889H8.00193V69.015H37.7191V71.2889ZM37.7191 64.691V66.9664H8.00193V64.6924H37.7191V64.691ZM37.7191 62.8719H8.00193V60.5965H37.7191V62.8719ZM37.7191 58.7746H8.00193V56.502H37.7191V58.7746ZM37.7191 52.4048V54.6801H8.00193V52.4076H37.7191V52.4048ZM37.7191 47.8555V50.1309H8.00193V47.8569L37.7191 47.8555Z" fill="#1E94AC"/>
<path d="M17.569 72.5959H16.2701V76.0199H17.569V72.5959Z" fill="#1E94AC"/>
<path d="M35.2416 72.8814H34.2965V76.0198H35.2416V72.8814Z" fill="#1E94AC"/>
<path d="M25.441 68.6995H24.3881V71.7696H25.441V68.6995Z" fill="#1E94AC"/>
<path d="M31.0297 60.1185H29.9767V63.1887H31.0297V60.1185Z" fill="#1E94AC"/>
<path d="M12.7479 56.0254H11.6949V59.0956H12.7479V56.0254Z" fill="#1E94AC"/>
<path d="M28.462 52.0088H27.4091V55.0789H28.462V52.0088Z" fill="#1E94AC"/>
<path d="M32.7423 51.9323H31.6893V55.0025H32.7423V51.9323Z" fill="#1E94AC"/>
<path d="M16.9188 47.4445H15.8658V50.5146H16.9188V47.4445Z" fill="#1E94AC"/>
<path d="M16.2701 64.2362H15.2075V67.4211H16.2701V64.2362Z" fill="#1E94AC"/>
</svg>
